Coordinates
version=1
nRows=12
nColumns=24
inDegrees=yes

Units are S.I. units (second, meters, Newtons, ...)
Angles are in degrees.

endheader
time	pelvis_tilt	pelvis_list	pelvis_rotation	pelvis_tx	pelvis_ty	pelvis_tz	hip_flexion_r	hip_adduction_r	hip_rotation_r	knee_angle_r	ankle_angle_r	subtalar_angle_r	mtp_angle_r	hip_flexion_l	hip_adduction_l	hip_rotation_l	knee_angle_l	ankle_angle_l	subtalar_angle_l	mtp_angle_l	lumbar_extension	lumbar_bending	lumbar_rotation
      1.05866667	     -1.89311095	     -3.90148993	     -3.32034904	      0.39033362	      1.00363269	      0.30774052	     16.34386648	      7.98883360	     -1.24659929	    -21.71819668	      0.44922603	    -16.94469886	     -1.13329584	     21.07830119	     -9.40175129	     -6.32649074	    -82.64079864	      4.07254067	     -1.11601756	    -10.24454794	     -8.52974029	      6.32699828	      3.80421010
      1.06283333	     -1.54441917	     -3.78152404	     -3.55674675	      0.39526074	      1.00536201	      0.30853985	     15.42648925	      7.93199696	     -0.91891127	    -21.29004907	      0.54559959	    -16.91132843	     -1.09269827	     21.32050804	     -9.35271169	     -6.54298680	    -82.41914810	      4.19233195	     -0.96980950	    -10.22995778	     -8.94077922	      6.08652517	      4.11862939
      1.06700000	     -1.31566860	     -3.65823534	     -3.74507682	      0.40014528	      1.00682860	      0.30918763	     14.65975043	      7.84374021	     -0.67925630	    -20.88947040	      0.60717760	    -16.82550125	     -1.05898584	     21.71510530	     -9.27755306	     -6.69792760	    -82.18212164	      4.35318524	     -0.80324401	    -10.21539336	     -9.20437600	      5.86979231	      4.30213087
      1.07116667	     -1.09536049	     -3.53319363	     -3.93033157	      0.40501348	      1.00825997	      0.30982404	     13.90302874	      7.74366152	     -0.45930288	    -20.48176256	      0.64502075	    -16.72173164	     -1.03000993	     22.10827630	     -9.20171849	     -6.85766187	    -81.89252173	      4.49580102	     -0.68271505	    -10.20344880	     -9.45935628	      5.63937997	      4.48533758
      1.07533333	     -0.85639411	     -3.41029400	     -4.11984931	      0.40986842	      1.00970712	      0.31045313	     13.12183717	      7.64066194	     -0.22138981	    -20.06483704	      0.70510589	    -16.63405328	     -1.00123299	     22.46261316	     -9.12915079	     -7.03024246	    -81.54037160	      4.60948029	     -0.60156863	    -10.19275203	     -9.73532845	      5.43077053	      4.67261390
      1.07950000	     -0.65662219	     -3.28404398	     -4.29749099	      0.41470503	      1.01105280	      0.31106008	     12.39138727	      7.52460059	     -0.01370774	    -19.65800787	      0.76093549	    -16.52505896	     -0.97458701	     22.85457549	     -9.05596618	     -7.19915148	    -81.14519954	      4.71112350	     -0.54440142	    -10.18353959	     -9.96678853	      5.21317287	      4.83903073
      1.08366667	     -0.44376273	     -3.16736497	     -4.47228859	      0.41950894	      1.01237860	      0.31166251	     11.64779088	      7.41080120	      0.18637134	    -19.24767606	      0.81628856	    -16.39643265	     -0.95119851	     23.22033353	     -8.99565855	     -7.37094816	    -80.70203024	      4.81045869	     -0.49601213	    -10.17573491	    -10.21638471	      5.00123010	      5.00247111
      1.08783333	     -0.27199588	     -3.04733329	     -4.64194240	      0.42431548	      1.01360666	      0.31226023	     10.95486873	      7.28831300	      0.36423035	    -18.84656227	      0.86951641	    -16.25925735	     -0.93117263	     23.61948335	     -8.93688757	     -7.54515337	    -80.21199263	      4.88588044	     -0.48973727	    -10.16980122	    -10.41305562	      4.78481872	      5.14763013
      1.09200000	     -0.09340355	     -2.93327166	     -4.80757927	      0.42909729	      1.01481382	      0.31281656	     10.25583814	      7.16297660	      0.53736155	    -18.44299530	      0.93392624	    -16.11134717	     -0.91324487	     23.99637688	     -8.87819351	     -7.71560025	    -79.66917177	      4.95771627	     -0.49201662	    -10.16506944	    -10.62164580	      4.59085853	      5.29104057
      1.09616667	      0.05463626	     -2.81531795	     -4.97123510	      0.43385674	      1.01592672	      0.31337504	      9.60076335	      7.02963115	      0.69066188	    -18.05603807	      1.00254683	    -15.94626125	     -0.89845429	     24.39544910	     -8.82080404	     -7.89016029	    -79.08196160	      5.01573460	     -0.51919963	    -10.16210765	    -10.79391582	      4.38353797	      5.41864627
      1.10033333	      0.20743270	     -2.71555398	     -5.12962723	      0.43860137	      1.01700574	      0.31392564	      8.93834336	      6.90981357	      0.83596494	    -17.66149551	      1.06230289	    -15.77077459	     -0.88559825	     24.77507654	     -8.78578099	     -8.06265715	    -78.45180450	      5.07310870	     -0.55720205	    -10.16098383	    -10.97649634	      4.19720445	      5.55262982
      1.10450000	      0.33294278	     -2.60765148	     -5.28761181	      0.44333662	      1.01800238	      0.31445932	      8.31485933	      6.77691546	      0.96469259	    -17.28191614	      1.14175478	    -15.58479413	     -0.87451369	     25.16872792	     -8.74319138	     -8.24199225	    -77.77115445	      5.11837884	     -0.62317394	    -10.16198415	    -11.12458023	      4.00316351	      5.66653474
